<mxfile host="Electron" agent="Mozilla/5.0 (X11; Linux x86_64) AppleWebKit/537.36 (KHTML, like Gecko) draw.io/24.7.8 Chrome/128.0.6613.36 Electron/32.0.1 Safari/537.36" version="24.7.8">
  <diagram name="Page-1" id="sVjNLFmWZmZpmfdCnsmX">
    <mxGraphModel dx="2314" dy="1213" grid="1" gridSize="10" guides="1" tooltips="1" connect="1" arrows="1" fold="1" page="1" pageScale="1" pageWidth="1100" pageHeight="850" math="0" shadow="0">
      <root>
        <mxCell id="0" />
        <mxCell id="1" parent="0" />
        <mxCell id="1OjtbBP0HhtFfG1VjbRj-104" value="" style="rounded=0;whiteSpace=wrap;html=1;fillColor=#D5E8D4;" parent="1" vertex="1">
          <mxGeometry x="20" y="400" width="780" height="200" as="geometry" />
        </mxCell>
        <mxCell id="1OjtbBP0HhtFfG1VjbRj-93" value="" style="rounded=0;whiteSpace=wrap;html=1;fillColor=#CDA2BE;" parent="1" vertex="1">
          <mxGeometry x="20" y="600" width="390" height="210" as="geometry" />
        </mxCell>
        <mxCell id="1OjtbBP0HhtFfG1VjbRj-92" value="" style="rounded=0;whiteSpace=wrap;html=1;shadow=0;fillColor=#FFCE9F;" parent="1" vertex="1">
          <mxGeometry x="410" y="600" width="390" height="210" as="geometry" />
        </mxCell>
        <mxCell id="1OjtbBP0HhtFfG1VjbRj-87" value="" style="rounded=0;whiteSpace=wrap;html=1;fillColor=#A9C4EB;" parent="1" vertex="1">
          <mxGeometry x="800" y="120" width="500" height="690" as="geometry" />
        </mxCell>
        <mxCell id="1OjtbBP0HhtFfG1VjbRj-53" value="" style="rounded=0;whiteSpace=wrap;html=1;fillColor=#CDA2BE;" parent="1" vertex="1">
          <mxGeometry x="390" y="120" width="410" height="280" as="geometry" />
        </mxCell>
        <mxCell id="1OjtbBP0HhtFfG1VjbRj-55" value="" style="rounded=0;whiteSpace=wrap;html=1;fillColor=#FFCE9F;" parent="1" vertex="1">
          <mxGeometry x="20" y="120" width="390" height="280" as="geometry" />
        </mxCell>
        <mxCell id="1OjtbBP0HhtFfG1VjbRj-1" value="Client" style="whiteSpace=wrap;html=1;aspect=fixed;" parent="1" vertex="1">
          <mxGeometry x="40" y="450" width="80" height="80" as="geometry" />
        </mxCell>
        <mxCell id="1OjtbBP0HhtFfG1VjbRj-9" value="" style="rounded=0;whiteSpace=wrap;html=1;" parent="1" vertex="1">
          <mxGeometry x="292" y="190" width="240" height="200" as="geometry" />
        </mxCell>
        <mxCell id="1OjtbBP0HhtFfG1VjbRj-10" value="&lt;font style=&quot;font-size: 18px;&quot;&gt;Requests&lt;/font&gt;" style="text;html=1;align=center;verticalAlign=middle;resizable=0;points=[];autosize=1;strokeColor=none;fillColor=none;" parent="1" vertex="1">
          <mxGeometry x="292" y="190" width="100" height="40" as="geometry" />
        </mxCell>
        <mxCell id="1OjtbBP0HhtFfG1VjbRj-11" value="" style="endArrow=none;html=1;rounded=0;entryX=1;entryY=0.25;entryDx=0;entryDy=0;exitX=0;exitY=0.25;exitDx=0;exitDy=0;" parent="1" source="1OjtbBP0HhtFfG1VjbRj-9" target="1OjtbBP0HhtFfG1VjbRj-9" edge="1">
          <mxGeometry width="50" height="50" relative="1" as="geometry">
            <mxPoint x="592" y="790" as="sourcePoint" />
            <mxPoint x="642" y="740" as="targetPoint" />
          </mxGeometry>
        </mxCell>
        <mxCell id="1OjtbBP0HhtFfG1VjbRj-25" style="edgeStyle=orthogonalEdgeStyle;rounded=0;orthogonalLoop=1;jettySize=auto;html=1;exitX=1;exitY=0.25;exitDx=0;exitDy=0;entryX=0.5;entryY=0;entryDx=0;entryDy=0;curved=1;" parent="1" source="1OjtbBP0HhtFfG1VjbRj-16" target="1OjtbBP0HhtFfG1VjbRj-18" edge="1">
          <mxGeometry relative="1" as="geometry" />
        </mxCell>
        <mxCell id="1OjtbBP0HhtFfG1VjbRj-26" value="Request w/ Parameters" style="edgeLabel;html=1;align=center;verticalAlign=middle;resizable=0;points=[];" parent="1OjtbBP0HhtFfG1VjbRj-25" vertex="1" connectable="0">
          <mxGeometry x="0.214" y="-14" relative="1" as="geometry">
            <mxPoint as="offset" />
          </mxGeometry>
        </mxCell>
        <mxCell id="1OjtbBP0HhtFfG1VjbRj-16" value="1.&amp;nbsp; GET CATEGORY&lt;div&gt;2.&amp;nbsp; GET PROFILE&lt;/div&gt;&lt;div&gt;3.&amp;nbsp; GET POST&amp;nbsp;&lt;/div&gt;&lt;div&gt;4.&amp;nbsp; GET NOTIFICATION&lt;/div&gt;&lt;div&gt;5.&amp;nbsp; CREATE POST&lt;/div&gt;&lt;div&gt;6.&amp;nbsp; CREATE ACCOUNT&lt;/div&gt;&lt;div&gt;7.&amp;nbsp; CREATE NOTIFICATION&lt;/div&gt;&lt;div&gt;8.&amp;nbsp; CREATE REPORT&lt;/div&gt;&lt;div&gt;9.&amp;nbsp; CREATE VERIFICATION REQUEST&lt;/div&gt;" style="text;html=1;align=left;verticalAlign=middle;whiteSpace=wrap;rounded=0;" parent="1" vertex="1">
          <mxGeometry x="302" y="280" width="230" height="60" as="geometry" />
        </mxCell>
        <mxCell id="1OjtbBP0HhtFfG1VjbRj-31" style="edgeStyle=orthogonalEdgeStyle;rounded=0;orthogonalLoop=1;jettySize=auto;html=1;exitX=1;exitY=0.5;exitDx=0;exitDy=0;entryX=0;entryY=0.5;entryDx=0;entryDy=0;" parent="1" source="1OjtbBP0HhtFfG1VjbRj-18" target="1OjtbBP0HhtFfG1VjbRj-30" edge="1">
          <mxGeometry relative="1" as="geometry" />
        </mxCell>
        <mxCell id="1OjtbBP0HhtFfG1VjbRj-41" value="Check requested resources" style="edgeLabel;html=1;align=center;verticalAlign=middle;resizable=0;points=[];" parent="1OjtbBP0HhtFfG1VjbRj-31" vertex="1" connectable="0">
          <mxGeometry x="-0.1604" y="2" relative="1" as="geometry">
            <mxPoint x="11" y="2" as="offset" />
          </mxGeometry>
        </mxCell>
        <mxCell id="1OjtbBP0HhtFfG1VjbRj-19" value="" style="rounded=0;whiteSpace=wrap;html=1;" parent="1" vertex="1">
          <mxGeometry x="287" y="610" width="240" height="190" as="geometry" />
        </mxCell>
        <mxCell id="1OjtbBP0HhtFfG1VjbRj-20" value="&lt;font style=&quot;font-size: 18px;&quot;&gt;Responses&lt;/font&gt;" style="text;html=1;align=center;verticalAlign=middle;resizable=0;points=[];autosize=1;strokeColor=none;fillColor=none;" parent="1" vertex="1">
          <mxGeometry x="292" y="610" width="110" height="40" as="geometry" />
        </mxCell>
        <mxCell id="1OjtbBP0HhtFfG1VjbRj-21" value="" style="endArrow=none;html=1;rounded=0;entryX=1;entryY=0.25;entryDx=0;entryDy=0;exitX=0;exitY=0.25;exitDx=0;exitDy=0;" parent="1" source="1OjtbBP0HhtFfG1VjbRj-19" target="1OjtbBP0HhtFfG1VjbRj-19" edge="1">
          <mxGeometry width="50" height="50" relative="1" as="geometry">
            <mxPoint x="592" y="830" as="sourcePoint" />
            <mxPoint x="642" y="780" as="targetPoint" />
          </mxGeometry>
        </mxCell>
        <mxCell id="1OjtbBP0HhtFfG1VjbRj-22" value="1. OK&lt;div&gt;2. MALFORMED&lt;/div&gt;&lt;div&gt;3.&amp;nbsp; DUPLICATE&lt;/div&gt;&lt;div&gt;4. NOT FOUND&lt;/div&gt;&lt;div&gt;5. UNAUTHORIZED&lt;/div&gt;" style="text;html=1;align=left;verticalAlign=middle;whiteSpace=wrap;rounded=0;" parent="1" vertex="1">
          <mxGeometry x="297" y="660" width="210" height="140" as="geometry" />
        </mxCell>
        <mxCell id="1OjtbBP0HhtFfG1VjbRj-23" value="" style="endArrow=classic;html=1;rounded=0;entryX=0;entryY=0.5;entryDx=0;entryDy=0;exitX=0.5;exitY=0;exitDx=0;exitDy=0;edgeStyle=orthogonalEdgeStyle;curved=1;" parent="1" source="1OjtbBP0HhtFfG1VjbRj-1" target="1OjtbBP0HhtFfG1VjbRj-9" edge="1">
          <mxGeometry width="50" height="50" relative="1" as="geometry">
            <mxPoint x="592" y="790" as="sourcePoint" />
            <mxPoint x="642" y="740" as="targetPoint" />
          </mxGeometry>
        </mxCell>
        <mxCell id="1OjtbBP0HhtFfG1VjbRj-24" value="Parameters" style="edgeLabel;html=1;align=center;verticalAlign=middle;resizable=0;points=[];" parent="1OjtbBP0HhtFfG1VjbRj-23" vertex="1" connectable="0">
          <mxGeometry x="-0.2773" y="-11" relative="1" as="geometry">
            <mxPoint as="offset" />
          </mxGeometry>
        </mxCell>
        <mxCell id="1OjtbBP0HhtFfG1VjbRj-38" style="edgeStyle=orthogonalEdgeStyle;rounded=0;orthogonalLoop=1;jettySize=auto;html=1;exitX=0;exitY=0.5;exitDx=0;exitDy=0;exitPerimeter=0;entryX=1;entryY=0.75;entryDx=0;entryDy=0;" parent="1" source="1OjtbBP0HhtFfG1VjbRj-28" target="1OjtbBP0HhtFfG1VjbRj-18" edge="1">
          <mxGeometry relative="1" as="geometry" />
        </mxCell>
        <mxCell id="1OjtbBP0HhtFfG1VjbRj-43" value="Query result" style="edgeLabel;html=1;align=center;verticalAlign=middle;resizable=0;points=[];" parent="1OjtbBP0HhtFfG1VjbRj-38" vertex="1" connectable="0">
          <mxGeometry x="0.0004" y="5" relative="1" as="geometry">
            <mxPoint y="1" as="offset" />
          </mxGeometry>
        </mxCell>
        <mxCell id="1OjtbBP0HhtFfG1VjbRj-28" value="MongoDB" style="shape=cylinder3;whiteSpace=wrap;html=1;boundedLbl=1;backgroundOutline=1;size=15;" parent="1" vertex="1">
          <mxGeometry x="1193.94" y="610" width="60" height="80" as="geometry" />
        </mxCell>
        <mxCell id="1OjtbBP0HhtFfG1VjbRj-39" style="edgeStyle=orthogonalEdgeStyle;rounded=0;orthogonalLoop=1;jettySize=auto;html=1;exitX=0;exitY=0.5;exitDx=0;exitDy=0;exitPerimeter=0;entryX=1;entryY=0.25;entryDx=0;entryDy=0;" parent="1" source="1OjtbBP0HhtFfG1VjbRj-29" target="1OjtbBP0HhtFfG1VjbRj-18" edge="1">
          <mxGeometry relative="1" as="geometry" />
        </mxCell>
        <mxCell id="1OjtbBP0HhtFfG1VjbRj-42" value="Query result" style="edgeLabel;html=1;align=center;verticalAlign=middle;resizable=0;points=[];" parent="1OjtbBP0HhtFfG1VjbRj-39" vertex="1" connectable="0">
          <mxGeometry x="-0.03" y="1" relative="1" as="geometry">
            <mxPoint as="offset" />
          </mxGeometry>
        </mxCell>
        <mxCell id="1OjtbBP0HhtFfG1VjbRj-29" value="SQL" style="shape=cylinder3;whiteSpace=wrap;html=1;boundedLbl=1;backgroundOutline=1;size=15;" parent="1" vertex="1">
          <mxGeometry x="1193.94" y="270" width="60" height="80" as="geometry" />
        </mxCell>
        <mxCell id="1OjtbBP0HhtFfG1VjbRj-30" value="Requested content in SQL or MongoDB?" style="rhombus;whiteSpace=wrap;html=1;" parent="1" vertex="1">
          <mxGeometry x="1173.94" y="440" width="100" height="100" as="geometry" />
        </mxCell>
        <mxCell id="1OjtbBP0HhtFfG1VjbRj-32" style="edgeStyle=orthogonalEdgeStyle;rounded=0;orthogonalLoop=1;jettySize=auto;html=1;exitX=0.5;exitY=0;exitDx=0;exitDy=0;entryX=0.5;entryY=1;entryDx=0;entryDy=0;entryPerimeter=0;" parent="1" source="1OjtbBP0HhtFfG1VjbRj-30" target="1OjtbBP0HhtFfG1VjbRj-29" edge="1">
          <mxGeometry relative="1" as="geometry" />
        </mxCell>
        <mxCell id="1OjtbBP0HhtFfG1VjbRj-35" value="SQL" style="edgeLabel;html=1;align=center;verticalAlign=middle;resizable=0;points=[];" parent="1OjtbBP0HhtFfG1VjbRj-32" vertex="1" connectable="0">
          <mxGeometry x="0.0714" y="1" relative="1" as="geometry">
            <mxPoint x="1" as="offset" />
          </mxGeometry>
        </mxCell>
        <mxCell id="1OjtbBP0HhtFfG1VjbRj-33" style="edgeStyle=orthogonalEdgeStyle;rounded=0;orthogonalLoop=1;jettySize=auto;html=1;exitX=0.5;exitY=1;exitDx=0;exitDy=0;entryX=0.5;entryY=0;entryDx=0;entryDy=0;entryPerimeter=0;" parent="1" source="1OjtbBP0HhtFfG1VjbRj-30" target="1OjtbBP0HhtFfG1VjbRj-28" edge="1">
          <mxGeometry relative="1" as="geometry" />
        </mxCell>
        <mxCell id="1OjtbBP0HhtFfG1VjbRj-34" value="MongoDB" style="edgeLabel;html=1;align=center;verticalAlign=middle;resizable=0;points=[];" parent="1OjtbBP0HhtFfG1VjbRj-33" vertex="1" connectable="0">
          <mxGeometry x="-0.1286" relative="1" as="geometry">
            <mxPoint y="1" as="offset" />
          </mxGeometry>
        </mxCell>
        <mxCell id="1OjtbBP0HhtFfG1VjbRj-60" value="&lt;h3&gt;send(int sockfd, const void buf[],&amp;nbsp;&lt;br&gt;&amp;nbsp; &amp;nbsp; &amp;nbsp; &amp;nbsp; &amp;nbsp; size_t len, int flags);&lt;/h3&gt;" style="text;html=1;align=left;verticalAlign=middle;resizable=0;points=[];autosize=1;strokeColor=none;fillColor=none;" parent="1" vertex="1">
          <mxGeometry x="425" y="110" width="250" height="80" as="geometry" />
        </mxCell>
        <mxCell id="1OjtbBP0HhtFfG1VjbRj-61" value="&lt;h3&gt;memset(void s[], int c, size_t n);&lt;/h3&gt;" style="text;html=1;align=center;verticalAlign=middle;resizable=0;points=[];autosize=1;strokeColor=none;fillColor=none;" parent="1" vertex="1">
          <mxGeometry x="20" y="110" width="240" height="60" as="geometry" />
        </mxCell>
        <mxCell id="1OjtbBP0HhtFfG1VjbRj-62" value="Formation of the message to send to the server is done by&amp;nbsp;&lt;div&gt;serializing the information in the buffer to be sent to the&amp;nbsp;&lt;/div&gt;&lt;div&gt;server with the send(4) function.&amp;nbsp; Setting&lt;/div&gt;&lt;div&gt;of the memory in the buffer is done with&lt;/div&gt;&lt;div&gt;memset(3).&amp;nbsp;&lt;/div&gt;" style="text;html=1;align=left;verticalAlign=middle;resizable=0;points=[];autosize=1;strokeColor=none;fillColor=none;" parent="1" vertex="1">
          <mxGeometry x="30" y="150" width="340" height="90" as="geometry" />
        </mxCell>
        <mxCell id="1OjtbBP0HhtFfG1VjbRj-63" value="The serialized data of the buffer (request) is sent off to the server for a response. This is done with the send(4) function." style="text;html=1;align=left;verticalAlign=middle;whiteSpace=wrap;rounded=0;" parent="1" vertex="1">
          <mxGeometry x="550" y="190" width="130" height="70" as="geometry" />
        </mxCell>
        <mxCell id="1OjtbBP0HhtFfG1VjbRj-64" value="" style="rounded=0;whiteSpace=wrap;html=1;" parent="1" vertex="1">
          <mxGeometry x="20.000000000000057" y="850" width="460" height="90" as="geometry" />
        </mxCell>
        <mxCell id="1OjtbBP0HhtFfG1VjbRj-65" value="&lt;h2&gt;Request Structure&lt;/h2&gt;" style="text;html=1;align=center;verticalAlign=middle;resizable=0;points=[];autosize=1;strokeColor=none;fillColor=none;" parent="1" vertex="1">
          <mxGeometry x="20.000000000000057" y="840" width="180" height="60" as="geometry" />
        </mxCell>
        <mxCell id="1OjtbBP0HhtFfG1VjbRj-66" value="request type, param count, param 1 length, param 1, ..., param n length, param 2" style="text;html=1;align=center;verticalAlign=middle;resizable=0;points=[];autosize=1;strokeColor=none;fillColor=none;" parent="1" vertex="1">
          <mxGeometry x="25.000000000000057" y="900" width="450" height="30" as="geometry" />
        </mxCell>
        <mxCell id="1OjtbBP0HhtFfG1VjbRj-68" value="" style="endArrow=none;html=1;rounded=0;entryX=1;entryY=0.5;entryDx=0;entryDy=0;exitX=0;exitY=0.5;exitDx=0;exitDy=0;" parent="1" source="1OjtbBP0HhtFfG1VjbRj-64" target="1OjtbBP0HhtFfG1VjbRj-64" edge="1">
          <mxGeometry width="50" height="50" relative="1" as="geometry">
            <mxPoint x="360" y="1210" as="sourcePoint" />
            <mxPoint x="410" y="1160" as="targetPoint" />
          </mxGeometry>
        </mxCell>
        <mxCell id="1OjtbBP0HhtFfG1VjbRj-85" value="" style="rounded=0;whiteSpace=wrap;html=1;" parent="1" vertex="1">
          <mxGeometry x="840" y="850" width="455" height="240" as="geometry" />
        </mxCell>
        <mxCell id="1OjtbBP0HhtFfG1VjbRj-86" value="&lt;h3&gt;Example Request: Get the contents of post with ID #23&lt;/h3&gt;" style="text;html=1;align=center;verticalAlign=middle;resizable=0;points=[];autosize=1;strokeColor=none;fillColor=none;" parent="1" vertex="1">
          <mxGeometry x="865" y="840" width="390" height="60" as="geometry" />
        </mxCell>
        <mxCell id="1OjtbBP0HhtFfG1VjbRj-77" style="edgeStyle=orthogonalEdgeStyle;rounded=0;orthogonalLoop=1;jettySize=auto;html=1;exitX=0.5;exitY=1;exitDx=0;exitDy=0;" parent="1" source="1OjtbBP0HhtFfG1VjbRj-72" edge="1">
          <mxGeometry relative="1" as="geometry">
            <mxPoint x="940" y="1000" as="targetPoint" />
          </mxGeometry>
        </mxCell>
        <mxCell id="1OjtbBP0HhtFfG1VjbRj-72" value="0" style="whiteSpace=wrap;html=1;aspect=fixed;" parent="1" vertex="1">
          <mxGeometry x="980" y="890" width="40" height="40" as="geometry" />
        </mxCell>
        <mxCell id="1OjtbBP0HhtFfG1VjbRj-78" style="edgeStyle=orthogonalEdgeStyle;rounded=0;orthogonalLoop=1;jettySize=auto;html=1;exitX=0.5;exitY=1;exitDx=0;exitDy=0;" parent="1" source="1OjtbBP0HhtFfG1VjbRj-73" edge="1">
          <mxGeometry relative="1" as="geometry">
            <mxPoint x="1000" y="1030" as="targetPoint" />
          </mxGeometry>
        </mxCell>
        <mxCell id="1OjtbBP0HhtFfG1VjbRj-73" value="1" style="whiteSpace=wrap;html=1;aspect=fixed;" parent="1" vertex="1">
          <mxGeometry x="1020" y="890" width="40" height="40" as="geometry" />
        </mxCell>
        <mxCell id="1OjtbBP0HhtFfG1VjbRj-79" style="edgeStyle=orthogonalEdgeStyle;rounded=0;orthogonalLoop=1;jettySize=auto;html=1;exitX=0.5;exitY=1;exitDx=0;exitDy=0;" parent="1" source="1OjtbBP0HhtFfG1VjbRj-74" edge="1">
          <mxGeometry relative="1" as="geometry">
            <mxPoint x="1120" y="1030" as="targetPoint" />
          </mxGeometry>
        </mxCell>
        <mxCell id="1OjtbBP0HhtFfG1VjbRj-74" value="1" style="whiteSpace=wrap;html=1;aspect=fixed;" parent="1" vertex="1">
          <mxGeometry x="1060" y="890" width="40" height="40" as="geometry" />
        </mxCell>
        <mxCell id="1OjtbBP0HhtFfG1VjbRj-80" style="edgeStyle=orthogonalEdgeStyle;rounded=0;orthogonalLoop=1;jettySize=auto;html=1;exitX=0.5;exitY=1;exitDx=0;exitDy=0;" parent="1" source="1OjtbBP0HhtFfG1VjbRj-76" edge="1">
          <mxGeometry relative="1" as="geometry">
            <mxPoint x="1190" y="1000" as="targetPoint" />
          </mxGeometry>
        </mxCell>
        <mxCell id="1OjtbBP0HhtFfG1VjbRj-76" value="23" style="whiteSpace=wrap;html=1;aspect=fixed;" parent="1" vertex="1">
          <mxGeometry x="1100" y="890" width="40" height="40" as="geometry" />
        </mxCell>
        <mxCell id="1OjtbBP0HhtFfG1VjbRj-81" value="GET CATEGORY" style="text;html=1;align=center;verticalAlign=middle;resizable=0;points=[];autosize=1;strokeColor=none;fillColor=none;" parent="1" vertex="1">
          <mxGeometry x="880" y="1005" width="120" height="30" as="geometry" />
        </mxCell>
        <mxCell id="1OjtbBP0HhtFfG1VjbRj-82" value="This request is&amp;nbsp;&lt;div&gt;being&amp;nbsp;&lt;span style=&quot;background-color: initial;&quot;&gt;sent with&amp;nbsp;&lt;/span&gt;&lt;/div&gt;&lt;div&gt;&lt;span style=&quot;background-color: initial;&quot;&gt;just 1&amp;nbsp;&lt;/span&gt;&lt;span style=&quot;background-color: initial;&quot;&gt;parameter&lt;/span&gt;&lt;/div&gt;" style="text;html=1;align=center;verticalAlign=middle;resizable=0;points=[];autosize=1;strokeColor=none;fillColor=none;" parent="1" vertex="1">
          <mxGeometry x="945" y="1030" width="110" height="60" as="geometry" />
        </mxCell>
        <mxCell id="1OjtbBP0HhtFfG1VjbRj-83" value="Parameter 1 is&amp;nbsp;&lt;div&gt;just one element&lt;/div&gt;" style="text;html=1;align=center;verticalAlign=middle;resizable=0;points=[];autosize=1;strokeColor=none;fillColor=none;" parent="1" vertex="1">
          <mxGeometry x="1065" y="1040" width="110" height="40" as="geometry" />
        </mxCell>
        <mxCell id="1OjtbBP0HhtFfG1VjbRj-84" value="Parameter 1 is&lt;div&gt;the value 23&lt;/div&gt;" style="text;html=1;align=center;verticalAlign=middle;resizable=0;points=[];autosize=1;strokeColor=none;fillColor=none;" parent="1" vertex="1">
          <mxGeometry x="1140" y="1000" width="100" height="40" as="geometry" />
        </mxCell>
        <mxCell id="1OjtbBP0HhtFfG1VjbRj-88" value="&lt;h2&gt;Check for requested resources&lt;/h2&gt;" style="text;html=1;align=center;verticalAlign=middle;resizable=0;points=[];autosize=1;strokeColor=none;fillColor=none;" parent="1" vertex="1">
          <mxGeometry x="795" y="120" width="290" height="60" as="geometry" />
        </mxCell>
        <mxCell id="1OjtbBP0HhtFfG1VjbRj-89" value="The type of response (and subsequent data) the server sends back to&amp;nbsp;&lt;div&gt;the client&amp;nbsp;&lt;span style=&quot;background-color: initial;&quot;&gt;depends on whether the resources asked for in the request&amp;nbsp;&lt;/span&gt;&lt;/div&gt;&lt;div&gt;&lt;span style=&quot;background-color: initial;&quot;&gt;exist.&lt;/span&gt;&lt;/div&gt;" style="text;html=1;align=left;verticalAlign=middle;resizable=0;points=[];autosize=1;strokeColor=none;fillColor=none;" parent="1" vertex="1">
          <mxGeometry x="810" y="165" width="400" height="60" as="geometry" />
        </mxCell>
        <mxCell id="1OjtbBP0HhtFfG1VjbRj-18" value="Server" style="whiteSpace=wrap;html=1;aspect=fixed;" parent="1" vertex="1">
          <mxGeometry x="665" y="452.5" width="80" height="80" as="geometry" />
        </mxCell>
        <mxCell id="1OjtbBP0HhtFfG1VjbRj-95" value="&lt;h3&gt;recv(int sockfd, void buf[], size_t len);&lt;/h3&gt;" style="text;html=1;align=left;verticalAlign=middle;whiteSpace=wrap;rounded=0;" parent="1" vertex="1">
          <mxGeometry x="232" y="410" width="350" height="30" as="geometry" />
        </mxCell>
        <mxCell id="1OjtbBP0HhtFfG1VjbRj-96" value="The server receives the data from the client and then checks the database(s) for the requested resources" style="text;html=1;align=left;verticalAlign=middle;whiteSpace=wrap;rounded=0;" parent="1" vertex="1">
          <mxGeometry x="502" y="450" width="163" height="85" as="geometry" />
        </mxCell>
        <mxCell id="1OjtbBP0HhtFfG1VjbRj-98" value="&lt;h3&gt;send(int sockfd, const void buf[], size_t len, int flags)&lt;/h3&gt;" style="text;html=1;align=left;verticalAlign=middle;whiteSpace=wrap;rounded=0;" parent="1" vertex="1">
          <mxGeometry x="26" y="730" width="244" height="50" as="geometry" />
        </mxCell>
        <mxCell id="1OjtbBP0HhtFfG1VjbRj-99" value="The server sends a response to the client" style="text;html=1;align=left;verticalAlign=middle;whiteSpace=wrap;rounded=0;" parent="1" vertex="1">
          <mxGeometry x="26" y="770" width="333" height="40" as="geometry" />
        </mxCell>
        <mxCell id="1OjtbBP0HhtFfG1VjbRj-102" value="&lt;h3&gt;memset(void s[], int c, size_t n);&lt;/h3&gt;" style="text;html=1;align=center;verticalAlign=middle;resizable=0;points=[];autosize=1;strokeColor=none;fillColor=none;" parent="1" vertex="1">
          <mxGeometry x="540" y="730" width="240" height="60" as="geometry" />
        </mxCell>
        <mxCell id="1OjtbBP0HhtFfG1VjbRj-103" value="The server sets the data of the reply buffer in the standard manner described earlier" style="text;html=1;align=left;verticalAlign=middle;whiteSpace=wrap;rounded=0;" parent="1" vertex="1">
          <mxGeometry x="550" y="760" width="245" height="50" as="geometry" />
        </mxCell>
        <mxCell id="1OjtbBP0HhtFfG1VjbRj-105" value="The client receives the data from the server. If the response is OK then the requested resources are available.&amp;nbsp;" style="text;html=1;align=left;verticalAlign=middle;whiteSpace=wrap;rounded=0;" parent="1" vertex="1">
          <mxGeometry x="139" y="450" width="163" height="85" as="geometry" />
        </mxCell>
        <mxCell id="1OjtbBP0HhtFfG1VjbRj-107" style="edgeStyle=orthogonalEdgeStyle;rounded=0;orthogonalLoop=1;jettySize=auto;html=1;exitX=0.5;exitY=1;exitDx=0;exitDy=0;entryX=0.996;entryY=0.615;entryDx=0;entryDy=0;entryPerimeter=0;curved=1;" parent="1" source="1OjtbBP0HhtFfG1VjbRj-18" target="1OjtbBP0HhtFfG1VjbRj-19" edge="1">
          <mxGeometry relative="1" as="geometry" />
        </mxCell>
        <mxCell id="1OjtbBP0HhtFfG1VjbRj-109" value="" style="endArrow=classic;html=1;rounded=0;entryX=0.5;entryY=1;entryDx=0;entryDy=0;exitX=-0.008;exitY=0.608;exitDx=0;exitDy=0;exitPerimeter=0;edgeStyle=orthogonalEdgeStyle;curved=1;" parent="1" source="1OjtbBP0HhtFfG1VjbRj-19" target="1OjtbBP0HhtFfG1VjbRj-1" edge="1">
          <mxGeometry width="50" height="50" relative="1" as="geometry">
            <mxPoint x="690" y="560" as="sourcePoint" />
            <mxPoint x="740" y="510" as="targetPoint" />
          </mxGeometry>
        </mxCell>
        <mxCell id="1OjtbBP0HhtFfG1VjbRj-110" value="Response (maybe w/ resources)" style="edgeLabel;html=1;align=center;verticalAlign=middle;resizable=0;points=[];" parent="1OjtbBP0HhtFfG1VjbRj-109" vertex="1" connectable="0">
          <mxGeometry x="-0.2354" y="-45" relative="1" as="geometry">
            <mxPoint x="-1" as="offset" />
          </mxGeometry>
        </mxCell>
      </root>
    </mxGraphModel>
  </diagram>
</mxfile>
